<svg xmlns="http://www.w3.org/2000/svg" width="894.506" height="193.227" viewBox="0 0 894.506 193.227">
  <path id="path-setima-hero" d="M1076.884,1079.4l-73.63-190.191H987.8l-73.9,190.191H884.565V889.21H866.072l-69,114.271-69-114.271H709.847V1079.4H661.821V889.21H647.192V1079.4H556.107V903.011H616.83v-13.8H480.478v13.8H541.2V1079.4H462.261v-10.78H365.655V991.889H453.98v-13.8H365.655V903.011h95.226v-13.8H351.026V1079.4H285.242c19.594-8.415,31.279-25.106,31.279-46.938,0-33.4-29.809-44.162-64.035-55.48-27.6-9.108-47.2-16.285-47.2-39.469,0-21.531,16.837-37.263,43.61-37.263,27.6,0,42.507,16.009,49.684,33.4l12.42-6.9c-9.384-22.357-30.361-40.575-62.1-40.575-32.845,0-58.515,20.149-58.515,51.891,0,33.674,28.982,42.783,61.276,53.272,29.533,9.384,49.959,18.217,49.959,41.4,0,22.081-16.285,38.642-48.579,38.642-31.742,0-51.339-15.733-57.963-38.918l-12.7,7.452c5.8,17.959,18.882,31.981,37.429,39.486h857.077Zm-81.359-172.25,43.059,112.339H952.467Zm-48.579,126.14h96.882l17.615,46.11H929.331ZM724.476,910.739l71.488,118.688h2.484l71.488-118.688V1079.4H724.476Z" transform="translate(-182.378 -886.174)" fill="#fff"/>
</svg>
